<svg version="1.1" id="Layer_1" xmlns="http://www.w3.org/2000/svg" xmlns:xlink="http://www.w3.org/1999/xlink" x="0px" y="0px"
	 width="100%" viewBox="0 0 500 500" enable-background="new 0 0 500 500" xml:space="preserve">
<path fill="#000000" opacity="1.000000" stroke="none" 
	d="
M279.000000,501.000000 
	C186.000015,501.000000 93.500046,501.000000 1.000050,501.000000 
	C1.000033,334.333405 1.000033,167.666794 1.000017,1.000139 
	C167.666565,1.000093 334.333130,1.000093 500.999756,1.000046 
	C500.999847,167.666519 500.999847,334.333038 500.999939,500.999786 
	C427.166656,501.000000 353.333344,501.000000 279.000000,501.000000 
M172.556717,221.166718 
	C162.044800,221.165497 151.532898,221.164261 140.251389,221.295914 
	C139.652039,221.524506 139.069763,221.878998 138.450790,221.962997 
	C127.111305,223.501785 118.564026,229.096817 115.499115,240.337830 
	C113.107162,249.110687 112.337891,258.325043 110.832245,267.340668 
	C108.896240,278.933258 106.879654,290.512817 105.018661,302.117371 
	C103.181145,313.575500 101.580208,325.071686 99.718803,336.525757 
	C97.571785,349.737335 95.203300,362.912781 93.022751,376.119049 
	C90.681473,390.298798 88.379211,404.485718 86.183197,418.688538 
	C83.605835,435.357819 97.124489,451.024841 112.216866,451.019653 
	C204.540802,450.988007 296.865234,450.862915 389.187988,451.193268 
	C399.508423,451.230225 412.534424,443.193359 414.806885,432.113220 
	C416.089050,425.861572 415.634460,419.053894 414.875763,412.624908 
	C413.267731,398.998779 411.055054,385.439545 408.892120,371.884521 
	C406.373016,356.097534 403.549988,340.359100 401.031097,324.572083 
	C398.868500,311.018066 397.023224,297.413635 394.898590,283.853271 
	C393.029785,271.925446 390.906555,260.037689 389.007812,248.114349 
	C386.661438,233.380264 376.743011,222.311951 360.622711,221.150192 
	C350.336395,221.146957 340.050110,221.143707 329.141266,221.417831 
	C325.593048,228.679138 322.044800,235.940430 318.106842,243.999283 
	C326.482391,243.999283 333.765137,243.991333 341.047913,244.001358 
	C349.569855,244.013077 357.401489,248.912811 359.898376,257.020752 
	C362.182953,264.439331 363.441864,272.188385 364.915710,279.837463 
	C366.120514,286.090302 367.045410,292.400452 367.956940,298.705048 
	C368.410828,301.844238 367.967285,304.421844 363.679138,304.025665 
	C355.864288,303.303711 347.987183,303.089355 340.222046,302.031799 
	C325.303101,299.999939 311.846466,294.035950 299.258301,285.901001 
	C298.252136,285.250763 295.562683,285.281799 295.153442,285.934906 
	C291.816345,291.260406 288.835876,296.809418 285.735596,302.310608 
	C287.732788,303.819702 289.284180,304.991974 291.123444,306.381744 
	C276.186035,323.708130 261.426544,340.828156 246.441788,358.209473 
	C245.460861,356.822968 244.756912,355.734161 243.960403,354.717896 
	C239.930084,349.575592 236.533218,343.700562 231.699127,339.471436 
	C219.988770,329.226562 205.804504,325.444580 190.342545,325.963898 
	C183.781113,326.184296 177.206116,326.000671 169.187576,326.000671 
	C182.548019,315.600739 194.756287,306.135223 206.914459,296.605835 
	C209.757843,294.377228 211.893936,292.261169 208.329117,288.374237 
	C205.888733,285.713287 204.673996,281.915527 202.968689,278.596466 
	C200.782623,274.341705 199.203369,274.029877 195.483917,277.004761 
	C175.667450,292.854248 155.843948,308.695129 135.961609,324.461731 
	C134.772842,325.404419 133.053070,325.677521 130.682419,326.618683 
	C131.353439,321.317719 131.765503,317.260651 132.394684,313.237518 
	C134.565262,299.358185 137.124969,285.531494 138.937042,271.606750 
	C140.600403,258.824585 144.370941,247.933228 159.134705,243.907059 
	C166.629684,243.940033 174.124695,243.995682 181.619614,243.983658 
	C182.872147,243.981644 185.278809,244.490143 182.808136,241.260620 
	C179.483994,234.835892 176.159851,228.411179 172.556717,221.166718 
M180.515045,212.036789 
	C181.530807,214.427612 182.392197,216.898804 183.587997,219.195892 
	C190.138000,231.778152 196.458023,244.494629 203.450516,256.828522 
	C212.830124,273.373016 222.414185,289.822662 232.543381,305.914612 
	C241.182465,319.639252 261.653259,320.108978 270.788391,305.083313 
	C285.369873,281.099426 299.257812,256.649567 312.367523,231.830734 
	C321.111877,215.276230 328.654785,197.996048 335.464508,180.544739 
	C339.568512,170.027451 342.643433,158.690323 343.683868,147.489639 
	C345.435364,128.634094 339.756683,110.986847 329.959167,94.854378 
	C322.097137,81.908859 311.534637,71.349693 298.393188,63.902805 
	C279.919067,53.433998 260.085693,48.949768 238.684814,51.869789 
	C224.876297,53.753883 212.072586,58.194839 200.344696,65.428452 
	C194.535172,69.011703 188.927185,73.359467 184.326904,78.370224 
	C175.936127,87.509712 169.052734,97.743416 164.647385,109.601036 
	C158.584839,125.919258 156.425766,142.281097 160.662445,159.455566 
	C165.128830,177.561340 172.371994,194.551407 180.515045,212.036789 
z"/>
<path fill="#EC6509" opacity="1.000000" stroke="none" 
	d="
M158.235840,243.826401 
	C144.370941,247.933228 140.600403,258.824585 138.937042,271.606750 
	C137.124969,285.531494 134.565262,299.358185 132.394684,313.237518 
	C131.765503,317.260651 131.353439,321.317719 130.682419,326.618683 
	C133.053070,325.677521 134.772842,325.404419 135.961609,324.461731 
	C155.843948,308.695129 175.667450,292.854248 195.483917,277.004761 
	C199.203369,274.029877 200.782623,274.341705 202.968689,278.596466 
	C204.673996,281.915527 205.888733,285.713287 208.329117,288.374237 
	C211.893936,292.261169 209.757843,294.377228 206.914459,296.605835 
	C194.756287,306.135223 182.548019,315.600739 169.187576,326.000671 
	C177.206116,326.000671 183.781113,326.184296 190.342545,325.963898 
	C205.804504,325.444580 219.988770,329.226562 231.699127,339.471436 
	C236.533218,343.700562 239.930084,349.575592 243.960403,354.717896 
	C244.756912,355.734161 245.460861,356.822968 246.441788,358.209473 
	C261.426544,340.828156 276.186035,323.708130 291.123444,306.381744 
	C289.284180,304.991974 287.732788,303.819702 285.735596,302.310608 
	C288.835876,296.809418 291.816345,291.260406 295.153442,285.934906 
	C295.562683,285.281799 298.252136,285.250763 299.258301,285.901001 
	C311.846466,294.035950 325.303101,299.999939 340.222046,302.031799 
	C347.987183,303.089355 355.864288,303.303711 363.679138,304.025665 
	C367.967285,304.421844 368.410828,301.844238 367.956940,298.705048 
	C367.045410,292.400452 366.120514,286.090302 364.915710,279.837463 
	C363.441864,272.188385 362.182953,264.439331 359.898376,257.020752 
	C357.401489,248.912811 349.569855,244.013077 341.047913,244.001358 
	C333.765137,243.991333 326.482391,243.999283 318.106842,243.999283 
	C322.044800,235.940430 325.593048,228.679138 329.789978,221.561676 
	C340.644043,221.773117 350.849396,221.840683 361.054749,221.908249 
	C376.743011,222.311951 386.661438,233.380264 389.007812,248.114349 
	C390.906555,260.037689 393.029785,271.925446 394.898590,283.853271 
	C397.023224,297.413635 398.868500,311.018066 401.031097,324.572083 
	C403.549988,340.359100 406.373016,356.097534 408.892120,371.884521 
	C411.055054,385.439545 413.267731,398.998779 414.875763,412.624908 
	C415.634460,419.053894 416.089050,425.861572 414.806885,432.113220 
	C412.534424,443.193359 399.508423,451.230225 389.187988,451.193268 
	C296.865234,450.862915 204.540802,450.988007 112.216866,451.019653 
	C97.124489,451.024841 83.605835,435.357819 86.183197,418.688538 
	C88.379211,404.485718 90.681473,390.298798 93.022751,376.119049 
	C95.203300,362.912781 97.571785,349.737335 99.718803,336.525757 
	C101.580208,325.071686 103.181145,313.575500 105.018661,302.117371 
	C106.879654,290.512817 108.896240,278.933258 110.832245,267.340668 
	C112.337891,258.325043 113.107162,249.110687 115.499115,240.337830 
	C118.564026,229.096817 127.111305,223.501785 138.450790,221.962997 
	C139.069763,221.878998 139.652039,221.524506 140.937088,221.518539 
	C152.027100,221.822937 162.431396,221.904709 172.835709,221.986465 
	C176.159851,228.411179 179.483994,234.835892 182.713898,241.965851 
	C180.501648,242.777252 178.383896,242.889084 176.265564,242.988480 
	C170.255783,243.270508 164.245758,243.547440 158.235840,243.826401 
M267.432861,366.664764 
	C268.782532,367.108917 270.131378,367.938202 271.481964,367.941010 
	C305.767151,368.012512 340.052521,368.010712 374.337769,367.953217 
	C375.859375,367.950684 377.379852,367.302521 378.663116,366.183746 
	C376.409943,352.466797 374.156769,338.749847 371.870300,324.830444 
	C350.691650,325.954651 330.732727,323.275330 311.653717,316.388855 
	C308.276825,320.278931 305.140320,323.843445 302.057617,327.453888 
	C296.635376,333.804352 291.335602,340.261749 285.818542,346.528229 
	C279.962189,353.180023 273.912628,359.661774 267.432861,366.664764 
M293.487610,429.718201 
	C316.629364,429.803345 339.771118,429.896423 362.912933,429.938324 
	C363.672546,429.939667 364.433075,429.420166 365.949921,429.000580 
	C375.679840,427.141602 381.680420,419.888397 383.985718,412.333435 
	C386.405121,404.404419 382.953430,396.986420 381.857635,388.447845 
	C381.548126,388.327301 381.238739,388.101501 380.929077,388.101135 
	C343.432709,388.058594 305.936279,388.027405 268.439972,388.061890 
	C267.928284,388.062347 267.417419,388.902374 267.037415,390.023956 
	C267.694153,390.943542 268.383301,391.841888 269.002716,392.785980 
	C276.952881,404.903137 284.893158,417.026794 293.487610,429.718201 
M127.011177,348.138000 
	C126.009109,353.912231 124.949265,359.677124 124.017029,365.462616 
	C122.095634,377.386719 120.439026,389.357056 118.310738,401.243408 
	C115.714485,415.743317 123.831459,427.179932 137.653229,429.629578 
	C138.635056,429.752563 139.616821,429.982697 140.598694,429.983124 
	C181.361664,430.001465 222.124634,430.000122 262.887604,429.993805 
	C263.882660,429.993652 265.162476,430.255554 265.778870,429.749268 
	C266.237335,429.372650 265.836182,427.949554 265.208008,426.687073 
	C252.555847,407.370941 239.480957,388.314148 227.409698,368.641571 
	C220.142578,356.798309 211.225418,348.432678 196.346207,346.344299 
	C196.026382,346.256104 195.706680,346.091156 195.386719,346.090637 
	C173.754501,346.054260 152.122223,346.010468 130.490173,346.063293 
	C129.319275,346.066162 128.150375,346.887787 127.011177,348.138000 
z"/>
<path fill="#EC6509" opacity="1.000000" stroke="none" 
	d="
M180.289200,211.724152 
	C172.371994,194.551407 165.128830,177.561340 160.662445,159.455566 
	C156.425766,142.281097 158.584839,125.919258 164.647385,109.601036 
	C169.052734,97.743416 175.936127,87.509712 184.326904,78.370224 
	C188.927185,73.359467 194.535172,69.011703 200.344696,65.428452 
	C212.072586,58.194839 224.876297,53.753883 238.684814,51.869789 
	C260.085693,48.949768 279.919067,53.433998 298.393188,63.902805 
	C311.534637,71.349693 322.097137,81.908859 329.959167,94.854378 
	C339.756683,110.986847 345.435364,128.634094 343.683868,147.489639 
	C342.643433,158.690323 339.568512,170.027451 335.464508,180.544739 
	C328.654785,197.996048 321.111877,215.276230 312.367523,231.830734 
	C299.257812,256.649567 285.369873,281.099426 270.788391,305.083313 
	C261.653259,320.108978 241.182465,319.639252 232.543381,305.914612 
	C222.414185,289.822662 212.830124,273.373016 203.450516,256.828522 
	C196.458023,244.494629 190.138000,231.778152 183.587997,219.195892 
	C182.392197,216.898804 181.530807,214.427612 180.289200,211.724152 
M303.987366,159.455856 
	C304.657898,156.105209 305.831726,152.767334 305.917084,149.401840 
	C306.457886,128.080978 298.168518,111.207764 280.045380,99.526375 
	C258.131226,85.401436 232.401459,89.083603 213.970169,105.722076 
	C201.003586,117.427383 195.701508,132.645035 196.985352,150.140182 
	C198.175232,166.354965 204.771042,179.693466 217.962997,189.372452 
	C233.106430,200.483246 249.908859,204.434540 267.796967,197.796082 
	C285.576447,191.197891 298.163391,178.826569 303.987366,159.455856 
z"/>
<path fill="#F6B284" opacity="1.000000" stroke="none" 
	d="
M172.696213,221.576599 
	C162.431396,221.904709 152.027100,221.822937 141.321884,221.452087 
	C151.532898,221.164261 162.044800,221.165497 172.696213,221.576599 
z"/>
<path fill="#F6B385" opacity="1.000000" stroke="none" 
	d="
M360.838745,221.529221 
	C350.849396,221.840683 340.644043,221.773117 330.101257,221.423004 
	C340.050110,221.143707 350.336395,221.146957 360.838745,221.529221 
z"/>
<path fill="#FAD5BC" opacity="1.000000" stroke="none" 
	d="
M158.685272,243.866730 
	C164.245758,243.547440 170.255783,243.270508 176.265564,242.988480 
	C178.383896,242.889084 180.501648,242.777252 182.846146,242.295776 
	C185.278809,244.490143 182.872147,243.981644 181.619614,243.983658 
	C174.124695,243.995682 166.629684,243.940033 158.685272,243.866730 
z"/>
<path fill="#000000" opacity="1.000000" stroke="none" 
	d="
M136.960556,429.155334 
	C123.831459,427.179932 115.714485,415.743317 118.310738,401.243408 
	C120.439026,389.357056 122.095634,377.386719 124.017029,365.462616 
	C124.949265,359.677124 126.009109,353.912231 127.449387,347.592285 
	C150.929230,346.978180 173.970856,346.909821 197.012497,346.841431 
	C211.225418,348.432678 220.142578,356.798309 227.409698,368.641571 
	C239.480957,388.314148 252.555847,407.370941 265.577271,427.274750 
	C264.178131,428.241180 262.410614,428.945953 260.641144,428.950836 
	C219.414413,429.064850 178.187454,429.103088 136.960556,429.155334 
z"/>
<path fill="#000000" opacity="1.000000" stroke="none" 
	d="
M382.087585,389.343445 
	C382.953430,396.986420 386.405121,404.404419 383.985718,412.333435 
	C381.680420,419.888397 375.679840,427.141602 365.083740,429.014282 
	C340.423706,429.068237 316.629791,429.108551 292.835907,429.148865 
	C284.893158,417.026794 276.952881,404.903137 269.002716,392.785980 
	C268.383301,391.841888 267.694153,390.943542 267.428833,389.528473 
	C304.761932,389.022064 341.703613,389.008026 378.645264,389.014679 
	C379.792725,389.014893 380.940155,389.229034 382.087585,389.343445 
z"/>
<path fill="#000000" opacity="1.000000" stroke="none" 
	d="
M267.947449,366.217773 
	C273.912628,359.661774 279.962189,353.180023 285.818542,346.528229 
	C291.335602,340.261749 296.635376,333.804352 302.057617,327.453888 
	C305.140320,323.843445 308.276825,320.278931 311.653717,316.388855 
	C330.732727,323.275330 350.691650,325.954651 371.870300,324.830444 
	C374.156769,338.749847 376.409943,352.466797 378.322815,366.589081 
	C342.858398,366.996185 307.734283,367.007965 272.610229,366.966614 
	C271.055664,366.964783 269.501709,366.478424 267.947449,366.217773 
z"/>
<path fill="#F6B183" opacity="1.000000" stroke="none" 
	d="
M137.306885,429.392456 
	C178.187454,429.103088 219.414413,429.064850 260.641144,428.950836 
	C262.410614,428.945953 264.178131,428.241180 265.882202,427.427490 
	C265.836182,427.949554 266.237335,429.372650 265.778870,429.749268 
	C265.162476,430.255554 263.882660,429.993652 262.887604,429.993805 
	C222.124634,430.000122 181.361664,430.001465 140.598694,429.983124 
	C139.616821,429.982697 138.635056,429.752563 137.306885,429.392456 
z"/>
<path fill="#FAD8C1" opacity="1.000000" stroke="none" 
	d="
M381.972595,388.895630 
	C380.940155,389.229034 379.792725,389.014893 378.645264,389.014679 
	C341.703613,389.008026 304.761932,389.022064 267.363220,389.191772 
	C267.417419,388.902374 267.928284,388.062347 268.439972,388.061890 
	C305.936279,388.027405 343.432709,388.058594 380.929077,388.101135 
	C381.238739,388.101501 381.548126,388.327301 381.972595,388.895630 
z"/>
<path fill="#F6B284" opacity="1.000000" stroke="none" 
	d="
M267.690155,366.441284 
	C269.501709,366.478424 271.055664,366.964783 272.610229,366.966614 
	C307.734283,367.007965 342.858398,366.996185 378.441681,366.974762 
	C377.379852,367.302521 375.859375,367.950684 374.337769,367.953217 
	C340.052521,368.010712 305.767151,368.012512 271.481964,367.941010 
	C270.131378,367.938202 268.782532,367.108917 267.690155,366.441284 
z"/>
<path fill="#F6B183" opacity="1.000000" stroke="none" 
	d="
M293.161743,429.433533 
	C316.629791,429.108551 340.423706,429.068237 364.705383,429.085693 
	C364.433075,429.420166 363.672546,429.939667 362.912933,429.938324 
	C339.771118,429.896423 316.629364,429.803345 293.161743,429.433533 
z"/>
<path fill="#F18A45" opacity="1.000000" stroke="none" 
	d="
M196.679352,346.592865 
	C173.970856,346.909821 150.929230,346.978180 127.434067,347.187439 
	C128.150375,346.887787 129.319275,346.066162 130.490173,346.063293 
	C152.122223,346.010468 173.754501,346.054260 195.386719,346.090637 
	C195.706680,346.091156 196.026382,346.256104 196.679352,346.592865 
z"/>
<path fill="#000000" opacity="1.000000" stroke="none" 
	d="
M303.974579,159.874634 
	C298.163391,178.826569 285.576447,191.197891 267.796967,197.796082 
	C249.908859,204.434540 233.106430,200.483246 217.962997,189.372452 
	C204.771042,179.693466 198.175232,166.354965 196.985352,150.140182 
	C195.701508,132.645035 201.003586,117.427383 213.970169,105.722076 
	C232.401459,89.083603 258.131226,85.401436 280.045380,99.526375 
	C298.168518,111.207764 306.457886,128.080978 305.917084,149.401840 
	C305.831726,152.767334 304.657898,156.105209 303.974579,159.874634 
M235.736786,119.042824 
	C219.186615,127.979324 216.640488,150.456833 226.341415,163.778488 
	C238.643570,180.672287 263.997437,180.451019 276.239685,163.934372 
	C284.985718,152.134644 284.519562,138.711533 274.838013,126.328384 
	C265.823425,114.798264 248.010880,112.777504 235.736786,119.042824 
z"/>
<path fill="#EC6509" opacity="1.000000" stroke="none" 
	d="
M236.109680,118.963013 
	C248.010880,112.777504 265.823425,114.798264 274.838013,126.328384 
	C284.519562,138.711533 284.985718,152.134644 276.239685,163.934372 
	C263.997437,180.451019 238.643570,180.672287 226.341415,163.778488 
	C216.640488,150.456833 219.186615,127.979324 236.109680,118.963013 
z"/>
</svg>